<?xml version="1.0" standalone="no"?>
<!DOCTYPE svg PUBLIC "-//W3C//DTD SVG 20010904//EN"
 "http://www.w3.org/TR/2001/REC-SVG-20010904/DTD/svg10.dtd">
<svg version="1.0" xmlns="http://www.w3.org/2000/svg"
 width="512.000000pt" height="512.000000pt" viewBox="0 0 512.000000 512.000000"
 preserveAspectRatio="xMidYMid meet">
<metadata>
Created by potrace 1.14, written by Peter Selinger 2001-2017
</metadata>
<g transform="translate(0.000000,512.000000) scale(0.100000,-0.100000)"
fill="#000000" stroke="none">
<path d="M2360 5024 c-78 -15 -169 -48 -230 -83 -25 -14 -234 -142 -465 -284
-231 -143 -433 -267 -450 -277 -112 -64 -497 -308 -530 -335 -145 -118 -269
-305 -304 -460 -6 -27 -15 -61 -18 -75 -4 -14 -8 -441 -9 -950 -3 -969 -2
-999 41 -1125 61 -178 182 -342 325 -436 30 -20 323 -191 650 -379 327 -188
631 -364 675 -389 196 -116 293 -145 470 -145 190 0 279 29 508 161 59 35 110
63 112 63 2 0 26 13 53 29 27 15 172 98 323 183 1062 600 983 550 1096 694 62
79 111 188 150 333 4 14 8 458 10 986 3 1042 3 1031 -53 1172 -51 129 -134
238 -245 320 -46 34 -243 152 -409 245 -51 29 -247 143 -270 158 -8 5 -37 22
-65 38 -102 58 -137 79 -475 275 -373 217 -429 245 -535 272 -86 22 -264 27
-355 9z m-260 -1608 l0 -484 460 0 460 0 0 484 0 484 278 -2 277 -3 0 -1322
c0 -728 -2 -1324 -5 -1324 -3 -1 -128 -2 -277 -3 l-273 -1 0 580 0 580 -457 0
-458 0 -5 -580 -5 -580 -268 0 c-148 0 -272 2 -276 5 -4 3 -7 600 -7 1328 l0
1322 278 0 278 0 0 -484z"/>
</g>
</svg>
